<svg xmlns="http://www.w3.org/2000/svg" viewBox="0 0 1200 800">
  <defs>
    <!-- Container colors -->
    <pattern id="containers" patternUnits="userSpaceOnUse" width="120" height="80">
      <rect width="40" height="25" x="0" y="0" fill="#e74c3c"/>
      <rect width="40" height="25" x="40" y="0" fill="#3498db"/>
      <rect width="40" height="25" x="80" y="0" fill="#f39c12"/>
      <rect width="40" height="25" x="0" y="25" fill="#2ecc71"/>
      <rect width="40" height="25" x="40" y="25" fill="#9b59b6"/>
      <rect width="40" height="25" x="80" y="25" fill="#1abc9c"/>
      <rect width="40" height="25" x="0" y="50" fill="#34495e"/>
      <rect width="40" height="25" x="40" y="50" fill="#e67e22"/>
      <rect width="40" height="25" x="80" y="50" fill="#95a5a6"/>
    </pattern>
    
    <!-- Crane structure -->
    <g id="crane">
      <rect x="0" y="0" width="8" height="120" fill="#f1c40f"/>
      <rect x="-30" y="20" width="68" height="6" fill="#f1c40f"/>
      <rect x="-25" y="26" width="4" height="15" fill="#f39c12"/>
      <circle cx="0" cy="15" r="3" fill="#e74c3c"/>
    </g>
  </defs>
  
  <!-- Sky background -->
  <rect width="1200" height="300" fill="#87ceeb"/>
  
  <!-- Water -->
  <rect y="600" width="1200" height="200" fill="#4682b4"/>
  
  <!-- Port ground -->
  <rect y="300" width="1200" height="300" fill="#708090"/>
  
  <!-- Container stacks -->
  <rect x="50" y="200" width="1100" height="400" fill="url(#containers)"/>
  
  <!-- Cranes -->
  <use href="#crane" transform="translate(200,180) scale(1.5)"/>
  <use href="#crane" transform="translate(400,180) scale(1.5)"/>
  <use href="#crane" transform="translate(600,180) scale(1.5)"/>
  <use href="#crane" transform="translate(800,180) scale(1.5)"/>
  <use href="#crane" transform="translate(1000,180) scale(1.5)"/>
  
  <!-- Ships in background -->
  <rect x="50" y="650" width="200" height="40" fill="#2c3e50"/>
  <rect x="300" y="660" width="150" height="30" fill="#34495e"/>
  <rect x="900" y="655" width="180" height="35" fill="#2c3e50"/>
  
  <!-- Buildings in background -->
  <rect x="0" y="100" width="80" height="200" fill="#bdc3c7"/>
  <rect x="80" y="120" width="60" height="180" fill="#95a5a6"/>
  <rect x="140" y="80" width="100" height="220" fill="#bdc3c7"/>
  <rect x="1100" y="90" width="100" height="210" fill="#95a5a6"/>
  
  <!-- Road lines -->
  <rect x="0" y="380" width="1200" height="2" fill="#f1c40f"/>
  <rect x="0" y="420" width="1200" height="2" fill="#f1c40f"/>
  <rect x="0" y="460" width="1200" height="2" fill="#f1c40f"/>
  <rect x="0" y="500" width="1200" height="2" fill="#f1c40f"/>
  <rect x="0" y="540" width="1200" height="2" fill="#f1c40f"/>
</svg>